<svg width="324" height="86" viewBox="0 0 324 86" fill="none" xmlns="http://www.w3.org/2000/svg" role="img" aria-labelledby="title desc">
  <title id="title">Growing Fig logo</title>
  <desc id="desc">Growing Fig wordmark with a fig leaf and bridge-inspired growth mark.</desc>
  <defs>
    <linearGradient id="figMark" x1="8" y1="8" x2="68" y2="68" gradientUnits="userSpaceOnUse">
      <stop stop-color="#10B981"/>
      <stop offset="0.55" stop-color="#22C55E"/>
      <stop offset="1" stop-color="#D7F067"/>
    </linearGradient>
    <linearGradient id="figText" x1="86" y1="20" x2="236" y2="54" gradientUnits="userSpaceOnUse">
      <stop stop-color="#0F766E"/>
      <stop offset="1" stop-color="#65A30D"/>
    </linearGradient>
  </defs>
  <g>
    <rect x="8" y="8" width="62" height="62" rx="19" fill="url(#figMark)"/>
    <path d="M39 18C51.5 18 60 27.6 60 39.2C60 52.5 50.4 61 39 61C27.6 61 18 52.5 18 39.2C18 27.6 26.5 18 39 18Z" fill="white" fill-opacity="0.2"/>
    <path d="M39.4 18.5C48.9 24.5 53.7 32.7 52.6 41.1C51.4 50.3 43 56.6 31.8 59.6C28 49.2 29.1 38.6 35.1 31.7C38.2 28.1 39.4 23.8 39.4 18.5Z" fill="white"/>
    <path d="M27 46.2C31.4 39.3 45.8 39.3 50.2 46.2" stroke="#0F766E" stroke-width="3.2" stroke-linecap="round"/>
    <path d="M31 50.7H46.4" stroke="#0F766E" stroke-width="3.2" stroke-linecap="round"/>
    <path d="M38.5 56C38.5 44.2 39.5 34.8 45.6 27.2" stroke="#0F766E" stroke-width="3.2" stroke-linecap="round"/>
    <circle cx="67" cy="67" r="7" fill="#FF315F" stroke="white" stroke-width="3"/>
  </g>
  <text x="88" y="45" fill="url(#figText)" font-family="Outfit, Inter, Arial, sans-serif" font-size="34" font-weight="850" letter-spacing="-0.6">Growing Fig</text>
  <text x="91" y="64" fill="#64748B" font-family="Inter, Arial, sans-serif" font-size="10" font-weight="800" letter-spacing="1.7">SAFER CARE OPERATIONS</text>
</svg>
