<svg width="220" height="56" viewBox="0 0 220 56" fill="none" xmlns="http://www.w3.org/2000/svg" role="img" aria-labelledby="title desc">
  <title id="title">SafeHome logo</title>
  <desc id="desc">A rounded teal home and bird mark beside the SafeHome wordmark.</desc>
  <rect width="56" height="56" rx="16" fill="#DFF5E8"/>
  <path d="M15 29.5L28 18L41 29.5" stroke="#102027" stroke-width="4" stroke-linecap="round" stroke-linejoin="round"/>
  <path d="M20.5 28.5V40H35.5V28.5" stroke="#102027" stroke-width="4" stroke-linecap="round" stroke-linejoin="round"/>
  <path d="M31 25C35.5 23.4 40.5 24.8 43 29C38.7 29.4 34.4 28.5 31 25Z" fill="#2563EB"/>
  <circle cx="38" cy="26.5" r="1.35" fill="white"/>
  <path d="M73 38C68.9 38 65.9 36.7 63.8 34.8L66.5 30.9C68.3 32.5 70.5 33.5 73.1 33.5C75.4 33.5 76.8 32.7 76.8 31.2C76.8 27.5 64.6 30.2 64.6 22.3C64.6 18.2 68.1 15.1 73.3 15.1C76.8 15.1 79.7 16.1 81.9 18.1L79.1 21.8C77.3 20.3 75.1 19.6 73 19.6C70.9 19.6 70 20.5 70 21.7C70 25.1 82.2 22.7 82.2 30.4C82.2 34.9 79 38 73 38Z" fill="#102027"/>
  <path d="M95.1 37.6V35.9C94 37.2 92 38 89.8 38C87.2 38 84.1 36.2 84.1 32.7C84.1 29 87.2 27.6 89.8 27.6C92.1 27.6 94 28.3 95.1 29.6V27.4C95.1 25.7 93.7 24.6 91.4 24.6C89.6 24.6 87.9 25.2 86.5 26.5L84.6 23.2C86.7 21.4 89.4 20.6 92.2 20.6C96.2 20.6 99.9 22.2 99.9 27.2V37.6H95.1ZM95.1 33.6V31.6C94.4 30.7 93.1 30.2 91.8 30.2C90.1 30.2 88.9 31 88.9 32.7C88.9 34.2 90.1 35 91.8 35C93.1 35 94.4 34.5 95.1 33.6Z" fill="#102027"/>
  <path d="M105.1 37.6V25.2H102.3V21H105.1V20.2C105.1 16.5 107.5 14.2 111 14.2C112.4 14.2 113.8 14.5 114.7 15L113.7 18.4C113.2 18.1 112.6 18 112 18C110.7 18 109.9 18.8 109.9 20.2V21H113.3V25.2H109.9V37.6H105.1Z" fill="#102027"/>
  <path d="M123.4 38C118.5 38 114.8 34.6 114.8 29.3C114.8 24.5 118.3 20.6 123.1 20.6C128 20.6 131.1 24.3 131.1 29.8V30.9H119.8C120.1 33 121.8 34.7 124.4 34.7C125.8 34.7 127.6 34.1 128.6 33.1L130.7 36.2C129.1 37.4 126.5 38 123.4 38ZM119.7 27.9H126.5C126.4 26.4 125.3 23.9 123.1 23.9C121 23.9 119.9 26.3 119.7 27.9Z" fill="#102027"/>
  <path d="M150.6 37.6V28.2H140.2V37.6H135V15.5H140.2V23.7H150.6V15.5H155.8V37.6H150.6Z" fill="#2563EB"/>
  <path d="M167.7 38C162.2 38 159 34 159 29.3C159 24.6 162.2 20.6 167.7 20.6C173.3 20.6 176.5 24.6 176.5 29.3C176.5 34 173.3 38 167.7 38ZM167.7 33.8C170.4 33.8 171.6 31.6 171.6 29.3C171.6 27.1 170.4 24.9 167.7 24.9C165.1 24.9 163.9 27.1 163.9 29.3C163.9 31.6 165.1 33.8 167.7 33.8Z" fill="#2563EB"/>
  <path d="M198.7 37.6V27.2C198.7 25.7 198 24.9 196.5 24.9C195.1 24.9 194 25.8 193.4 26.6V37.6H188.6V27.2C188.6 25.7 187.9 24.9 186.4 24.9C185 24.9 183.9 25.8 183.3 26.6V37.6H178.5V21H183.3V23.1C184 22.1 186.2 20.6 188.7 20.6C191.1 20.6 192.7 21.8 193.2 23.6C194.2 22.1 196.4 20.6 198.9 20.6C202 20.6 203.5 22.2 203.5 25.6V37.6H198.7Z" fill="#2563EB"/>
  <path d="M214.6 38C209.7 38 206 34.6 206 29.3C206 24.5 209.5 20.6 214.3 20.6C219.2 20.6 222.3 24.3 222.3 29.8V30.9H211C211.3 33 213 34.7 215.6 34.7C217 34.7 218.8 34.1 219.8 33.1L221.9 36.2C220.3 37.4 217.7 38 214.6 38ZM210.9 27.9H217.7C217.6 26.4 216.5 23.9 214.3 23.9C212.2 23.9 211.1 26.3 210.9 27.9Z" fill="#2563EB"/>
</svg>
