<svg width="82" height="82" viewBox="0 0 82 82" fill="none" xmlns="http://www.w3.org/2000/svg" role="img" aria-labelledby="title desc">
  <title id="title">TaskBridge mark</title>
  <desc id="desc">A fig-shaped safeguarding check mark for TaskBridge by Growing Fig.</desc>
  <defs>
    <linearGradient id="taskbridgeMark" x1="8" y1="8" x2="70" y2="70" gradientUnits="userSpaceOnUse">
      <stop stop-color="#FF315F"/>
      <stop offset=".62" stop-color="#FF8A2A"/>
      <stop offset="1" stop-color="#0F8F73"/>
    </linearGradient>
    <linearGradient id="checkAccent" x1="27" y1="50" x2="48" y2="34" gradientUnits="userSpaceOnUse">
      <stop stop-color="#FF315F"/>
      <stop offset="1" stop-color="#FF8A2A"/>
    </linearGradient>
  </defs>
  <rect x="8" y="8" width="58" height="58" rx="16" fill="url(#taskbridgeMark)"/>
  <path d="M37 17.5C30.8 24.3 21.6 31 21.6 42.2 21.6 52.6 28.4 60.3 37 60.3s15.4-7.7 15.4-18.1C52.4 31 43.2 24.3 37 17.5Z" stroke="white" stroke-width="3.3" stroke-linejoin="round"/>
  <path d="M26.7 42.6c0-7.5 4.7-11.2 10.3-15.9 5.6 4.7 10.3 8.4 10.3 15.9 0 8-4.2 13.4-10.3 13.4s-10.3-5.4-10.3-13.4Z" fill="#CFEF8A" fill-opacity=".78"/>
  <path d="M36.9 32.9v18.2M30.3 38.1c3.1 2.5 5.2 5.4 6.6 8.8M43.8 38.1c-3.2 2.5-5.3 5.4-6.7 8.8M30.1 45.5h14.5" stroke="#0F8F73" stroke-width="2" stroke-linecap="round" stroke-opacity=".62"/>
  <path d="m28.4 43.6 6.5 6.7 13.1-15.9" stroke="white" stroke-width="5.7" stroke-linecap="round" stroke-linejoin="round"/>
  <path d="m28.4 43.6 6.5 6.7 13.1-15.9" stroke="url(#checkAccent)" stroke-width="4" stroke-linecap="round" stroke-linejoin="round"/>
  <circle cx="65" cy="65" r="7" fill="#22C55E" stroke="white" stroke-width="3"/>
</svg>
